<svg xmlns="http://www.w3.org/2000/svg" xmlns:svg="http://www.w3.org/2000/svg" id="svg859" width="37.835" height="25.224" version="1.1" viewBox="0 0 10.011 6.674"><metadata id="metadata856"/><g id="layer1" transform="translate(-0.23565797,-0.18034423)"><g id="g119" transform="matrix(0.35277777,0,0,-0.35277777,6.9094716,1.8484903)"><path id="path121" fill="#100f0d" fill-opacity="1" fill-rule="nonzero" stroke="none" d="M 0,0 -4.729,-4.73 -9.459,0 -4.729,4.728 Z"/></g><g id="g123" transform="matrix(0.35277777,0,0,-0.35277777,6.9094716,5.1855603)"><path id="path125" fill="#100f0d" fill-opacity="1" fill-rule="nonzero" stroke="none" d="M 0,0 -4.729,-4.73 -9.459,0 -4.729,4.73 Z"/></g><g id="g127" transform="matrix(0.35277777,0,0,-0.35277777,3.5725829,1.8486303)"><path id="path129" fill="#100f0d" fill-opacity="1" fill-rule="nonzero" stroke="none" d="M 0,0 -4.73,-4.73 -9.459,0 -4.73,4.729 Z"/></g><g id="g131" transform="matrix(0.35277777,0,0,-0.35277777,10.246185,1.8486303)"><path id="path133" fill="#100f0d" fill-opacity="1" fill-rule="nonzero" stroke="none" d="M 0,0 -4.729,-4.73 -9.459,0 -4.729,4.729 Z"/></g></g></svg>