<?xml version="1.0" encoding="UTF-8" standalone="no"?>
<svg
   xmlns:dc="http://purl.org/dc/elements/1.1/"
   xmlns:cc="http://creativecommons.org/ns#"
   xmlns:rdf="http://www.w3.org/1999/02/22-rdf-syntax-ns#"
   xmlns:svg="http://www.w3.org/2000/svg"
   xmlns="http://www.w3.org/2000/svg"
   id="svg859"
   version="1.1"
   viewBox="0 0 10.010527 6.6738548"
   height="6.6738548mm"
   width="10.010527mm">
  <defs
     id="defs853" />
  <metadata
     id="metadata856">
    <rdf:RDF>
      <cc:Work
         rdf:about="">
        <dc:format>image/svg+xml</dc:format>
        <dc:type
           rdf:resource="http://purl.org/dc/dcmitype/StillImage" />
        <dc:title></dc:title>
      </cc:Work>
    </rdf:RDF>
  </metadata>
  <g
     transform="translate(-0.23565797,-0.18034423)"
     id="layer1">
    <g
       id="g119"
       transform="matrix(0.35277777,0,0,-0.35277777,6.9094716,1.8484903)">
      <path
         d="M 0,0 -4.729,-4.73 -9.459,0 -4.729,4.728 Z"
         style="fill:#100f0d;fill-opacity:1;fill-rule:nonzero;stroke:none"
         id="path121" />
    </g>
    <g
       id="g123"
       transform="matrix(0.35277777,0,0,-0.35277777,6.9094716,5.1855603)">
      <path
         d="M 0,0 -4.729,-4.73 -9.459,0 -4.729,4.73 Z"
         style="fill:#100f0d;fill-opacity:1;fill-rule:nonzero;stroke:none"
         id="path125" />
    </g>
    <g
       id="g127"
       transform="matrix(0.35277777,0,0,-0.35277777,3.5725829,1.8486303)">
      <path
         d="M 0,0 -4.73,-4.73 -9.459,0 -4.73,4.729 Z"
         style="fill:#100f0d;fill-opacity:1;fill-rule:nonzero;stroke:none"
         id="path129" />
    </g>
    <g
       id="g131"
       transform="matrix(0.35277777,0,0,-0.35277777,10.246185,1.8486303)">
      <path
         d="M 0,0 -4.729,-4.73 -9.459,0 -4.729,4.729 Z"
         style="fill:#100f0d;fill-opacity:1;fill-rule:nonzero;stroke:none"
         id="path133" />
    </g>
  </g>
</svg>
